[Header]
FileType HTR
DataType HTRS
FileVersion 1
NumSegments 64
NumFrames 3
DataFrameRate 30
EulerRotationOrder ZYX
CalibrationUnits mm
RotationUnits Degrees
GlobalAxisofGravity Y
BoneLengthAxis Y
ScaleFactor 1.0
[SegmentNames&Hierarchy]
Hips	GLOBAL
Spine	Hips
Spine1	Spine
Spine2	Spine1
Neck	Spine2
Head	Neck
LeftEye	Head
RightEye	Head
LeftShoulder	Spine2
LeftArm	LeftShoulder
LeftForeArm	LeftArm
LeftHand	LeftForeArm
LeftHandThumb1	LeftHand
LeftHandThumb2	LeftHandThumb1
LeftHandThumb3	LeftHandThumb2
LeftHandThumb4	LeftHandThumb3
LeftHandIndex1	LeftHand
LeftHandIndex2	LeftHandIndex1
LeftHandIndex3	LeftHandIndex2
LeftHandIndex4	LeftHandIndex3
LeftHandMiddle1	LeftHand
LeftHandMiddle2	LeftHandMiddle1
LeftHandMiddle3	LeftHandMiddle2
LeftHandMiddle4	LeftHandMiddle3
LeftHandRing1	LeftHand
LeftHandRing2	LeftHandRing1
LeftHandRing3	LeftHandRing2
LeftHandRing4	LeftHandRing3
LeftHandPinky1	LeftHand
LeftHandPinky2	LeftHandPinky1
LeftHandPinky3	LeftHandPinky2
LeftHandPinky4	LeftHandPinky3
RightShoulder	Spine2
RightArm	RightShoulder
RightForeArm	RightArm
RightHand	RightForeArm
RightHandPinky1	RightHand
RightHandPinky2	RightHandPinky1
RightHandPinky3	RightHandPinky2
RightHandPinky4	RightHandPinky3
RightHandRing1	RightHand
RightHandRing2	RightHandRing1
RightHandRing3	RightHandRing2
RightHandRing4	RightHandRing3
RightHandMiddle1	RightHand
RightHandMiddle2	RightHandMiddle1
RightHandMiddle3	RightHandMiddle2
RightHandMiddle4	RightHandMiddle3
RightHandIndex1	RightHand
RightHandIndex2	RightHandIndex1
RightHandIndex3	RightHandIndex2
RightHandIndex4	RightHandIndex3
RightHandThumb1	RightHand
RightHandThumb2	RightHandThumb1
RightHandThumb3	RightHandThumb2
RightHandThumb4	RightHandThumb3
LeftUpLeg	Hips
LeftLeg	LeftUpLeg
LeftFoot	LeftLeg
LeftToeBase	LeftFoot
RightUpLeg	Hips
RightLeg	RightUpLeg
RightFoot	RightLeg
RightToeBase	RightFoot
[BasePosition]
Hips	0	0	0	0	0	0	1
Spine	0	0	0	0	0	0	1
Spine1	0	0	0	0	0	0	1
Spine2	0	0	0	0	0	0	1
Neck	0	0	0	0	0	0	1
Head	0	0	0	0	0	0	1
LeftEye	0	0	0	0	0	0	1
RightEye	0	0	0	0	0	0	1
LeftShoulder	0	0	0	0	0	0	1
LeftArm	0	0	0	0	0	0	1
LeftForeArm	0	0	0	0	0	0	1
LeftHand	0	0	0	0	0	0	1
LeftHandThumb1	0	0	0	0	0	0	1
LeftHandThumb2	0	0	0	0	0	0	1
LeftHandThumb3	0	0	0	0	0	0	1
LeftHandThumb4	0	0	0	0	0	0	1
LeftHandIndex1	0	0	0	0	0	0	1
LeftHandIndex2	0	0	0	0	0	0	1
LeftHandIndex3	0	0	0	0	0	0	1
LeftHandIndex4	0	0	0	0	0	0	1
LeftHandMiddle1	0	0	0	0	0	0	1
LeftHandMiddle2	0	0	0	0	0	0	1
LeftHandMiddle3	0	0	0	0	0	0	1
LeftHandMiddle4	0	0	0	0	0	0	1
LeftHandRing1	0	0	0	0	0	0	1
LeftHandRing2	0	0	0	0	0	0	1
LeftHandRing3	0	0	0	0	0	0	1
LeftHandRing4	0	0	0	0	0	0	1
LeftHandPinky1	0	0	0	0	0	0	1
LeftHandPinky2	0	0	0	0	0	0	1
LeftHandPinky3	0	0	0	0	0	0	1
LeftHandPinky4	0	0	0	0	0	0	1
RightShoulder	0	0	0	0	0	0	1
RightArm	0	0	0	0	0	0	1
RightForeArm	0	0	0	0	0	0	1
RightHand	0	0	0	0	0	0	1
RightHandPinky1	0	0	0	0	0	0	1
RightHandPinky2	0	0	0	0	0	0	1
RightHandPinky3	0	0	0	0	0	0	1
RightHandPinky4	0	0	0	0	0	0	1
RightHandRing1	0	0	0	0	0	0	1
RightHandRing2	0	0	0	0	0	0	1
RightHandRing3	0	0	0	0	0	0	1
RightHandRing4	0	0	0	0	0	0	1
RightHandMiddle1	0	0	0	0	0	0	1
RightHandMiddle2	0	0	0	0	0	0	1
RightHandMiddle3	0	0	0	0	0	0	1
RightHandMiddle4	0	0	0	0	0	0	1
RightHandIndex1	0	0	0	0	0	0	1
RightHandIndex2	0	0	0	0	0	0	1
RightHandIndex3	0	0	0	0	0	0	1
RightHandIndex4	0	0	0	0	0	0	1
RightHandThumb1	0	0	0	0	0	0	1
RightHandThumb2	0	0	0	0	0	0	1
RightHandThumb3	0	0	0	0	0	0	1
RightHandThumb4	0	0	0	0	0	0	1
LeftUpLeg	0	0	0	0	0	0	1
LeftLeg	0	0	0	0	0	0	1
LeftFoot	0	0	0	0	0	0	1
LeftToeBase	0	0	0	0	0	0	1
RightUpLeg	0	0	0	0	0	0	1
RightLeg	0	0	0	0	0	0	1
RightFoot	0	0	0	0	0	0	1
RightToeBase	0	0	0	0	0	0	1
[Hips]
9	109.9527893	1018.419189	-27.48043442	-1.358418584	-11.57719231	-3.753807783	1.0
10	114.193222	1016.907898	-31.21957588	-1.292174935	-14.6682415	-3.782074213	1.0
11	115.5091705	1016.658691	-36.3761673	-1.4796381	-18.42853165	-3.746134996	1.0
[Spine]
9	0	101.8159943	1.315000057	3.343808889	-0.1672875136	3.318170309	1.0
10	0	101.8159943	1.315000057	3.173273563	-0.2337697893	3.295698404	1.0
11	0	101.8159943	1.315000057	3.029632807	-0.4362260103	3.336771011	1.0
[Spine1]
9	0	100.8349991	-10.00800037	1.21281004	-1.066535234	-0.4452177882	1.0
10	0	100.8349991	-10.00800037	1.068008184	-1.159064054	-0.8528023958	1.0
11	0	100.8349991	-10.00800037	0.9485499859	-1.359454393	-1.258859754	1.0
[Spine2]
9	0	91	-13.73399925	1.1351161	-0.8902426362	1.558302402	1.0
10	0	91	-13.73399925	0.9793905616	-0.9452579618	1.533266544	1.0
11	0	91	-13.73399925	0.8431203961	-1.107117772	1.499199986	1.0
[Neck]
9	0	166.7169952	-25.16200066	7.859033585	-9.540322304	2.312984467	1.0
10	0	166.7169952	-25.16200066	7.869914055	-9.628377914	2.334419966	1.0
11	0	166.7169952	-25.16200066	7.884618759	-9.499564171	2.352916002	1.0
[Head]
9	0	96.17900085	16.84999847	-2.775870085	-23.28203583	7.670680046	1.0
10	0	96.17900085	16.84999847	-2.648082256	-24.07771873	8.279313087	1.0
11	0	96.17900085	16.84999847	-2.634912014	-24.19663429	8.729370117	1.0
[LeftEye]
9	30.6760006	64.09500122	92.83599854	0	0	0	1.0
10	30.6760006	64.09500122	92.83599854	0	0	0	1.0
11	30.6760006	64.09500122	92.83599854	0	0	0	1.0
[RightEye]
9	-30.6760006	64.09500122	92.83499908	0	0	0	1.0
10	-30.6760006	64.09500122	92.83499908	0	0	0	1.0
11	-30.6760006	64.09500122	92.83499908	0	0	0	1.0
[LeftShoulder]
9	45.70400238	109.4599991	-26.28000069	4.783836842	-16.41994476	-12.62442493	1.0
10	45.70400238	109.4599991	-26.28000069	4.735616207	-16.18396187	-12.70202351	1.0
11	45.70400238	109.4599991	-26.28000069	4.682100296	-15.9563694	-12.75181866	1.0
[LeftArm]
9	105.923996	-5.24600029	-22.32099915	18.58621979	2.525712967	-64.6400528	1.0
10	105.923996	-5.24600029	-22.32099915	18.30464172	3.250188112	-63.90826035	1.0
11	105.923996	-5.24600029	-22.32099915	18.0487442	4.086035728	-63.17041779	1.0
[LeftForeArm]
9	278.414978	-0.0009999999311	0	-6.337324066e-06	-6.096409321	-0.0002186399361	1.0
10	278.414978	-0.0009999999311	0	7.097130492e-07	-7.190541744	-0.0002061043051	1.0
11	278.414978	-0.0009999999311	0	5.022603091e-06	-8.231850624	-0.0002070741903	1.0
[LeftHand]
9	283.2879944	0	0	-34.12723923	2.86170578	-2.242438316	1.0
10	283.2879944	0	0	-32.97587585	3.584686995	-1.515505791	1.0
11	283.2879944	0	0	-31.74011612	4.138419628	-0.6958902478	1.0
[LeftHandThumb1]
9	24.6609993	-15.75	26.8239994	-0.4889863729	2.201392412	4.818544865	1.0
10	24.6609993	-15.75	26.8239994	-0.4889863729	2.201392412	4.818544865	1.0
11	24.6609993	-15.75	26.8239994	-0.4889863729	2.201392412	4.818544865	1.0
[LeftHandThumb2]
9	32.29800034	-18.64699936	18.64699936	19.73562622	19.73621178	23.05888939	1.0
10	32.29800034	-18.64699936	18.64699936	19.54532814	19.33778381	22.96443748	1.0
11	32.29800034	-18.64699936	18.64699936	19.54631615	18.88619804	22.86231232	1.0
[LeftHandThumb3]
9	26.52600098	-15.31499958	15.31499958	-13.15249538	5.535564899	7.973111153	1.0
10	26.52600098	-15.31499958	15.31499958	-13.153368	5.533414364	7.9730196	1.0
11	26.52600098	-15.31499958	15.31499958	-13.16076279	5.515197277	7.972247601	1.0
[LeftHandThumb4]
9	19.54599953	-11.28499985	11.28499985	0	0	0	1.0
10	19.54599953	-11.28499985	11.28499985	0	0	0	1.0
11	19.54599953	-11.28499985	11.28499985	0	0	0	1.0
[LeftHandIndex1]
9	91.09299469	-5.170999527	22.60099792	0.04722345993	-1.017711639	-8.236869812	1.0
10	91.09299469	-5.170999527	22.60099792	0.04230393097	-1.026238561	-8.238987923	1.0
11	91.09299469	-5.170999527	22.60099792	0.06368052214	-0.9835426807	-8.259911537	1.0
[LeftHandIndex2]
9	36.76399994	0	0	-0.2665866911	1.744799137	-17.37259865	1.0
10	36.76399994	0	0	-0.2648862898	1.739367247	-17.31678009	1.0
11	36.76399994	0	0	-0.264539212	1.73825562	-17.30541229	1.0
[LeftHandIndex3]
9	28.83100128	0	0	-0.05737456679	0.8169427514	-8.034501076	1.0
10	28.83100128	0	0	-0.05658081919	0.8113122582	-7.97873497	1.0
11	28.83100128	0	0	-0.05642116442	0.8101661205	-7.967332363	1.0
[LeftHandIndex4]
9	23.92700005	0	0	0	0	0	1.0
10	23.92700005	0	0	0	0	0	1.0
11	23.92700005	0	0	0	0	0	1.0
[LeftHandMiddle1]
9	95.33399963	0	0	-0.8273914456	2.587264776	-16.20489311	1.0
10	95.33399963	0	0	-0.8243386149	2.567229509	-16.16052628	1.0
11	95.33399963	0	0	-0.8138343096	2.625735044	-16.00400352	1.0
[LeftHandMiddle2]
9	36.98199844	0	0	-0.271156013	1.759340286	-17.52214622	1.0
10	36.98199844	0	0	-0.2709236741	1.758603334	-17.51457024	1.0
11	36.98199844	0	0	-0.2699224055	1.755423784	-17.48187828	1.0
[LeftHandMiddle3]
9	29.50900078	0	0	-0.3029586971	1.857013941	-18.52998352	1.0
10	29.50900078	0	0	-0.3027172685	1.856291771	-18.52254295	1.0
11	29.50900078	0	0	-0.3016428053	1.853088379	-18.48936462	1.0
[LeftHandMiddle4]
9	28.3390007	0	0	0	0	0	1.0
10	28.3390007	0	0	0	0	0	1.0
11	28.3390007	0	0	0	0	0	1.0
[LeftHandRing1]
9	91.04499817	-0.4390000105	-18.65100098	-1.229326487	3.252203703	-21.75498581	1.0
10	91.04499817	-0.4390000105	-18.65100098	-1.226984262	3.247695923	-21.72434044	1.0
11	91.04499817	-0.4390000105	-18.65100098	-1.2243613	3.241214752	-21.69002533	1.0
[LeftHandRing2]
9	31.54000092	0	0	-0.3842975497	2.083889723	-20.89518166	1.0
10	31.54000092	0	0	-0.3836570382	2.082216024	-20.87756348	1.0
11	31.54000092	0	0	-0.3837641478	2.082495689	-20.88056374	1.0
[LeftHandRing3]
9	29.37700081	0	0	-0.2812630832	1.791023731	-17.84849548	1.0
10	29.37700081	0	0	-0.2807147801	1.789312005	-17.83089066	1.0
11	29.37700081	0	0	-0.2808099091	1.789610744	-17.83388138	1.0
[LeftHandRing4]
9	26.47500038	0	0	0	0	0	1.0
10	26.47500038	0	0	0	0	0	1.0
11	26.47500038	0	0	0	0	0	1.0
[LeftHandPinky1]
9	80.77799988	-4.887000084	-38.06099701	-1.895515561	4.702024937	-27.93189621	1.0
10	80.77799988	-4.887000084	-38.06099701	-1.887702703	4.745471954	-27.92946434	1.0
11	80.77799988	-4.887000084	-38.06099701	-1.877577066	4.73931694	-27.82094955	1.0
[LeftHandPinky2]
9	36	0	0	-0.2706788182	1.757796764	-17.50637054	1.0
10	36	0	0	-0.2675735354	1.747964144	-17.40522766	1.0
11	36	0	0	-0.270914197	1.758570194	-17.51424789	1.0
[LeftHandPinky3]
9	21.14200211	0	0	-0.2433134913	1.668602228	-16.5910244	1.0
10	21.14200211	0	0	-0.2403986007	1.658811569	-16.49084091	1.0
11	21.14200211	0	0	-0.2435649782	1.669472814	-16.59983826	1.0
[LeftHandPinky4]
9	19.75699997	0	0	0	0	0	1.0
10	19.75699997	0	0	0	0	0	1.0
11	19.75699997	0	0	0	0	0	1.0
[RightShoulder]
9	-45.70000076	109.4620056	-26.28000069	5.044250011	14.09241199	15.15977097	1.0
10	-45.70000076	109.4620056	-26.28000069	5.016080379	14.01562214	15.04566669	1.0
11	-45.70000076	109.4620056	-26.28000069	5.000631332	13.99306297	14.97917843	1.0
[RightArm]
9	-105.9280014	-5.248000145	-22.32099915	-9.044296265	-6.411494255	61.65646362	1.0
10	-105.9280014	-5.248000145	-22.32099915	-13.79158211	-8.826446533	62.66708374	1.0
11	-105.9280014	-5.248000145	-22.32099915	-18.27464485	-10.79982662	63.92788696	1.0
[RightForeArm]
9	-278.414978	0	0	-1.546691578e-06	22.0870266	-6.37376661e-06	1.0
10	-278.414978	0	0	4.581308417e-07	24.19947243	-3.749086318e-06	1.0
11	-278.414978	0	0	-6.21326808e-06	25.53242874	-2.064027831e-05	1.0
[RightHand]
9	-283.2879944	0	0.0009999999311	17.22242355	17.19342041	0.3231780529	1.0
10	-283.2879944	0	0.0009999999311	21.49386597	18.37570763	2.496717215	1.0
11	-283.2879944	0	0.0009999999311	25.65805435	18.91671181	5.086331844	1.0
[RightHandPinky1]
9	-80.76699829	-4.885000229	-38.06000137	-1.518864274	-5.334005833	27.17262459	1.0
10	-80.76699829	-4.885000229	-38.06000137	-1.513295889	-5.356926441	27.1282692	1.0
11	-80.76699829	-4.885000229	-38.06000137	-1.501933694	-5.358360767	27.00314903	1.0
[RightHandPinky2]
9	-36	0	0.0009999999311	-0.2132450193	-1.390391469	17.4575634	1.0
10	-36	0	0.0009999999311	-0.2127634138	-1.388863087	17.43775749	1.0
11	-36	0	0.0009999999311	-0.2122415304	-1.387212157	17.41636848	1.0
[RightHandPinky3]
9	-21.14200211	0	0	-0.1924309582	-1.322335362	16.5587101	1.0
10	-21.14200211	0	0	-0.1919834465	-1.320824862	16.53922462	1.0
11	-21.14200211	0	0	-0.1914860457	-1.319181919	16.5180397	1.0
[RightHandPinky4]
9	-19.75699997	0	0	0	0	0	1.0
10	-19.75699997	0	0	0	0	0	1.0
11	-19.75699997	0	0	0	0	0	1.0
[RightHandRing1]
9	-91.03599548	-0.4390000105	-18.65100098	-1.129514575	-3.240903378	21.74124146	1.0
10	-91.03599548	-0.4390000105	-18.65100098	-1.127224565	-3.243508816	21.70709419	1.0
11	-91.03599548	-0.4390000105	-18.65100098	-1.114414096	-3.160089016	21.51695824	1.0
[RightHandRing2]
9	-31.54000092	0	0	-0.308588326	-1.663692236	21.01462746	1.0
10	-31.54000092	0	0	-0.3080162704	-1.662205935	20.99497795	1.0
11	-31.54000092	0	0	-0.3074672222	-1.660754919	20.9758873	1.0
[RightHandRing3]
9	-29.37700081	0	0	-0.2261388749	-1.430799723	17.96192169	1.0
10	-29.37700081	0	0	-0.2256493717	-1.42929101	17.94226837	1.0
11	-29.37700081	0	0	-0.2251734734	-1.427839994	17.92340469	1.0
[RightHandRing4]
9	-26.47500038	0	0	0	0	0	1.0
10	-26.47500038	0	0	0	0	0	1.0
11	-26.47500038	0	0	0	0	0	1.0
[RightHandMiddle1]
9	-95.32500458	0	0	-0.8061427474	-2.762037039	16.72628784	1.0
10	-95.32500458	0	0	-0.7997373343	-2.791568756	16.62171555	1.0
11	-95.32500458	0	0	-0.7861952186	-2.798984051	16.40070343	1.0
[RightHandMiddle2]
9	-36.98199844	0	0	-0.2159849405	-1.399109483	17.55086136	1.0
10	-36.98199844	0	0	-0.2160203904	-1.39919138	17.55193138	1.0
11	-36.98199844	0	0	-0.2161149383	-1.399502873	17.55587578	1.0
[RightHandMiddle3]
9	-29.50900078	0	0	-0.2412689477	-1.478671789	18.55839539	1.0
10	-29.50900078	0	0	-0.2412859648	-1.478750467	18.55940056	1.0
11	-29.50900078	0	0	-0.2413985431	-1.479052305	18.56335258	1.0
[RightHandMiddle4]
9	-28.3390007	0	0.0009999999311	0	0	0	1.0
10	-28.3390007	0	0.0009999999311	0	0	0	1.0
11	-28.3390007	0	0.0009999999311	0	0	0	1.0
[RightHandIndex1]
9	-91.08300018	-5.167999744	22.60099792	0.2675150335	0.7663534284	8.499786377	1.0
10	-91.08300018	-5.167999744	22.60099792	0.2659167349	0.7880399823	8.411943436	1.0
11	-91.08300018	-5.167999744	22.60099792	0.2696067095	0.8213927746	8.173915863	1.0
[RightHandIndex2]
9	-36.76399994	0	0	-0.2129457444	-1.389474273	17.42598343	1.0
10	-36.76399994	0	0	-0.2130067945	-1.389652729	17.42826653	1.0
11	-36.76399994	0	0	-0.2125579119	-1.388219357	17.40973091	1.0
[RightHandIndex3]
9	-28.83100128	0	0	-0.04597740248	-0.6515818834	8.071867943	1.0
10	-28.83100128	0	0	-0.04600332677	-0.6517611742	8.074131966	1.0
11	-28.83100128	0	0	-0.04579001665	-0.6502818465	8.055603027	1.0
[RightHandIndex4]
9	-23.92700005	0	0	0	0	0	1.0
10	-23.92700005	0	0	0	0	0	1.0
11	-23.92700005	0	0	0	0	0	1.0
[RightHandThumb1]
9	-24.64799881	-15.72700024	26.82600021	-1.658462644	-0.289145112	-4.221315384	1.0
10	-24.64799881	-15.72700024	26.82600021	-1.658462644	-0.289145112	-4.221315384	1.0
11	-24.64799881	-15.72700024	26.82600021	-1.658462644	-0.289145112	-4.221315384	1.0
[RightHandThumb2]
9	-32.29800034	-18.64699936	18.64699936	23.36813927	-23.62493515	-24.59566498	1.0
10	-32.29800034	-18.64699936	18.64699936	23.29305267	-23.44660187	-24.4926815	1.0
11	-32.29800034	-18.64699936	18.64699936	23.13452339	-23.06520462	-24.27918816	1.0
[RightHandThumb3]
9	-26.52600098	-15.31399918	15.31399918	-13.12131596	-4.686629295	-12.35250282	1.0
10	-26.52600098	-15.31399918	15.31399918	-13.0881176	-4.691017628	-12.32938385	1.0
11	-26.52600098	-15.31399918	15.31399918	-13.21132278	-4.90167141	-12.1716013	1.0
[RightHandThumb4]
9	-19.54599953	-11.28499985	11.28499985	0	0	0	1.0
10	-19.54599953	-11.28499985	11.28499985	0	0	0	1.0
11	-19.54599953	-11.28499985	11.28499985	0	0	0	1.0
[LeftUpLeg]
9	82.07800293	-67.51699829	-15.99599934	-16.9063282	12.07361889	1.064395189	1.0
10	82.07800293	-67.51699829	-15.99599934	-17.18471336	12.73551559	1.036898255	1.0
11	82.07800293	-67.51699829	-15.99599934	-16.82089615	14.08163643	1.411309123	1.0
[LeftLeg]
9	0	-443.7049866	2.845999956	25.06266594	4.368354797	8.162830353	1.0
10	0	-443.7049866	2.845999956	25.86042023	4.530338287	8.313570023	1.0
11	0	-443.7049866	2.845999956	26.09889984	5.362632275	8.418842316	1.0
[LeftFoot]
9	0	-444.2789917	-29.8219986	-6.470467091	17.95400429	-5.294373512	1.0
10	0	-444.2789917	-29.8219986	-6.982105255	20.09170914	-5.69375515	1.0
11	0	-444.2789917	-29.8219986	-7.112400532	21.62682724	-6.063674927	1.0
[LeftToeBase]
9	0	-87.28699493	107.1060028	-4.928524971	-8.967487702e-06	-9.022978276e-08	1.0
10	0	-87.28699493	107.1060028	-4.928525448	-7.723977433e-06	-9.398513612e-07	1.0
11	0	-87.28699493	107.1060028	-4.928520679	1.833717761e-06	-1.140058203e-06	1.0
[RightUpLeg]
9	-82.07800293	-67.51699829	-15.99599934	-9.079470634	-12.69153786	-3.786092281	1.0
10	-82.07800293	-67.51699829	-15.99599934	-8.71675396	-14.62709236	-3.864082336	1.0
11	-82.07800293	-67.51699829	-15.99599934	-7.219193459	-17.2694931	-4.203388214	1.0
[RightLeg]
9	0	-443.7049866	2.861999989	29.49213791	-13.87354755	3.575361967	1.0
10	0	-443.7049866	2.861999989	30.53880882	-13.75447464	3.400172234	1.0
11	0	-443.7049866	2.861999989	29.79952431	-13.734231	3.607069492	1.0
[RightFoot]
9	0	-444.2770081	-29.83799934	-8.533106804	-29.62844467	6.502399445	1.0
10	0	-444.2770081	-29.83799934	-10.18327236	-28.92840385	9.650292397	1.0
11	0	-444.2770081	-29.83799934	-11.34145927	-28.62969589	11.00811386	1.0
[RightToeBase]
9	0	-87.28699493	107.1060028	-11.39290333	9.20718594e-06	-2.496708021e-06	1.0
10	0	-87.28699493	107.1060028	-12.42389107	-1.709128628e-05	4.646387424e-06	1.0
11	0	-87.28699493	107.1060028	-12.73088455	-1.675435669e-05	6.484498954e-06	1.0
[EndOfFile]
